<svg xmlns="http://www.w3.org/2000/svg" viewBox="0 0 64 64">
  <defs>
    <linearGradient id="yomu-bg" x1="8" x2="56" y1="4" y2="60" gradientUnits="userSpaceOnUse">
      <stop stop-color="#20242b" />
      <stop offset="1" stop-color="#181b20" />
    </linearGradient>
    <linearGradient id="yomu-rim" x1="8" x2="56" y1="5" y2="59" gradientUnits="userSpaceOnUse">
      <stop stop-color="#3a4350" />
      <stop offset="1" stop-color="#282e37" />
    </linearGradient>
    <filter id="soft-shadow" x="-20%" y="-20%" width="140%" height="140%">
      <feDropShadow dx="0" dy="1" stdDeviation="0.9" flood-color="#000000" flood-opacity="0.28" />
    </filter>
  </defs>
  <rect width="64" height="64" rx="14" fill="url(#yomu-bg)" />
  <rect x="4" y="4" width="56" height="56" rx="12" fill="none" stroke="url(#yomu-rim)" stroke-width="2" />
  <circle cx="49.2" cy="18.2" r="8.2" fill="#5ea780" opacity="0.1" />
  <path d="M18.5 51.6c5.1 1 11.4.9 16.6-.2" fill="none" stroke="#5ea780" stroke-width="2.35" stroke-linecap="round" opacity="0.95" />
  <g fill="none" stroke="#f2f4f8" stroke-linecap="round" stroke-linejoin="round" filter="url(#soft-shadow)">
    <path d="M21 22.5c8.1.2 16.5-.2 24.2-1.1" stroke-width="5.2" />
    <path d="M35.4 14.4c.9 8.8 1.3 18.3.7 27.1-.5 7.7-11.7 9.4-15.2 4.1-3.2-4.9 2.2-9.3 9.2-8.9 5.5.3 10.3 2.3 14.2 5.7" stroke-width="5.2" />
  </g>
  <g fill="none" stroke-linecap="round" stroke-linejoin="round" filter="url(#soft-shadow)">
    <path d="M42.1 16.7h5.1l3.4 4.6h5.8" stroke="#181b20" stroke-width="4.1" />
    <path d="M42.1 16.7h5.1l3.4 4.6h5.8" stroke="#fe4b74" stroke-width="1.9" />
    <g fill="#fe4b74" stroke="#181b20" stroke-width="0.8">
      <circle cx="42.1" cy="16.7" r="1.5" />
      <circle cx="47.2" cy="16.7" r="1.5" />
      <circle cx="50.6" cy="21.3" r="1.5" />
      <circle cx="56.4" cy="21.3" r="1.5" />
    </g>
  </g>
</svg>
